<?xml version="1.0" standalone="no"?>
<!DOCTYPE svg PUBLIC "-//W3C//DTD SVG 20010904//EN"
 "http://www.w3.org/TR/2001/REC-SVG-20010904/DTD/svg10.dtd">
<svg version="1.0" xmlns="http://www.w3.org/2000/svg"
 width="1082.000000pt" height="1082.000000pt" viewBox="0 0 1082.000000 1082.000000"
 preserveAspectRatio="xMidYMid meet">
<metadata>
Created by potrace 1.14, written by Peter Selinger 2001-2017
</metadata>
<g transform="translate(0.000000,1082.000000) scale(0.100000,-0.100000)"
fill="#000000" stroke="none">
<path d="M0 5410 l0 -5410 5410 0 5410 0 0 5410 0 5410 -5410 0 -5410 0 0
-5410z m2875 2720 c191 -12 250 -20 415 -56 330 -73 633 -218 880 -420 82 -66
242 -228 310 -314 301 -377 480 -857 541 -1450 15 -149 15 -592 0 -740 -73
-716 -310 -1257 -723 -1655 -51 -50 -113 -106 -138 -126 l-44 -36 39 -54 c21
-30 163 -225 315 -434 152 -209 284 -392 294 -407 l18 -28 -353 0 -354 0 -225
311 c-124 171 -230 315 -236 320 -7 5 -43 -2 -95 -20 -231 -78 -444 -111 -749
-118 -404 -9 -693 38 -1010 164 -262 103 -456 231 -678 447 -256 248 -439 553
-565 941 -194 594 -207 1403 -32 2024 89 318 249 632 440 866 390 477 929 744
1580 784 189 12 185 12 370 1z m5360 0 c191 -12 250 -20 415 -56 390 -87 737
-270 1019 -538 132 -127 301 -353 395 -531 175 -331 277 -690 317 -1110 15
-165 15 -591 0 -755 -55 -581 -248 -1094 -552 -1465 -60 -74 -233 -246 -308
-307 l-45 -36 39 -53 c21 -30 167 -232 325 -449 157 -217 290 -401 294 -407 6
-10 -66 -13 -346 -13 l-353 0 -229 315 c-126 174 -232 318 -237 320 -4 3 -32
-4 -61 -15 -213 -81 -529 -130 -841 -131 -750 0 -1324 248 -1761 761 -414 486
-623 1240 -576 2080 26 472 110 820 286 1179 318 648 868 1056 1590 1181 98
17 249 30 429 38 17 1 107 -3 200 -8z"/>
<path d="M2435 7535 c-511 -72 -923 -368 -1164 -835 -161 -313 -227 -573 -251
-992 -17 -289 9 -641 65 -878 77 -323 226 -623 418 -840 206 -233 480 -394
792 -465 272 -62 577 -59 850 8 50 12 90 25 90 28 0 3 -137 194 -305 424 -168
230 -309 424 -313 432 -7 11 52 13 346 13 l354 0 184 -252 c100 -139 198 -273
216 -297 l32 -43 79 80 c335 339 518 810 551 1417 20 366 -19 730 -109 1021
-108 345 -276 617 -504 816 -231 202 -487 319 -798 363 -126 18 -408 18 -533
0z"/>
<path d="M7795 7535 c-457 -65 -830 -304 -1083 -695 -196 -302 -306 -677 -332
-1132 -31 -515 60 -1015 246 -1368 173 -325 411 -563 709 -704 337 -161 761
-199 1159 -106 49 11 92 23 97 25 4 3 -131 195 -300 428 -169 232 -310 428
-314 435 -7 9 65 12 346 12 l354 0 214 -294 213 -294 33 26 c19 13 70 66 114
116 357 402 531 1015 489 1723 -26 453 -123 793 -316 1112 -207 341 -542 588
-931 686 -176 44 -499 58 -698 30z"/>
</g>
</svg>
